<svg width="30" height="39" viewBox="0 0 30 39" fill="none" xmlns="http://www.w3.org/2000/svg">
<path d="M15.0002 18.902L0.000244141 26.6746V27.6576V38.4851H30.0002V27.6576V26.6746L15.0002 18.902Z" fill="#049A03"/>
<path d="M15 18.902V19.945L30 27.6576V26.6746L15 18.902Z" fill="#6AB36A"/>
<path d="M29.0707 27.1798V36.9606H0.929312V27.1798L0 26.6747V38.485H30V27.6576V26.6747L29.0707 27.1798Z" fill="#037803"/>
<path d="M15.0002 18.902L0.000244141 26.6746L0.929558 27.1798L15.0002 19.945V18.902Z" fill="#7ED37D"/>
<path d="M15.0002 9.45099L0.000244141 17.2235V18.2066V24.7109L15.0002 16.9383L30.0002 24.7109V18.2066V17.2235L15.0002 9.45099Z" fill="#00A4C5"/>
<path d="M15 9.45099V10.494L30 18.2066V17.2235L15 9.45099Z" fill="#00B6DF"/>
<path d="M29.0707 17.7289V23.1864L15 15.8954L0.929312 23.1864V17.7289L0 17.2237V24.7108L15 16.9385L30 24.7108V18.2066V17.2237L29.0707 17.7289Z" fill="#0086A4"/>
<path d="M15.0002 9.45099L0.000244141 17.2235L0.929558 17.7288L15.0002 10.494V9.45099Z" fill="#00D5FF"/>
<path d="M15.0002 0L0.000244141 7.77257V8.75561V15.2599L15.0002 7.48736L30.0002 15.2599V8.75561V7.77257L15.0002 0Z" fill="#049A03"/>
<path d="M15 0V1.04303L30 8.75561V7.77257L15 0Z" fill="#6AB36A"/>
<path d="M29.0707 8.27792V13.7354L15 6.44446L0.929312 13.7354V8.27792L0 7.77276V15.2599L15 7.48749L30 15.2599V8.75563V7.77276L29.0707 8.27792Z" fill="#037803"/>
<path d="M15.0002 0L0.000244141 7.77257L0.929558 8.27779L15.0002 1.04303V0Z" fill="#7ED37D"/>
</svg>
