<svg xmlns="http://www.w3.org/2000/svg" width="253" height="76" viewBox="0 0 253 76" fill="none">
  <path d="M29.4034 37.3276L0 52.6768V54.6181V76.0001H58.8068V54.6181V52.6768L29.4034 37.3276Z" fill="#049A03"/>
  <path d="M29.4033 37.3276V39.3873L58.8067 54.6181V52.6768L29.4033 37.3276Z" fill="#6AB36A"/>
  <path d="M56.9852 53.6746V72.9895H1.82166V53.6746L0 52.677V76H58.8069V54.618V52.677L56.9852 53.6746Z" fill="#037803"/>
  <path d="M29.4034 37.3276L0 52.6768L1.82167 53.6745L29.4034 39.3873V37.3276Z" fill="#7ED37D"/>
  <path d="M29.4034 18.6638L0 34.013V35.9543V48.799L29.4034 33.4498L58.8068 48.799V35.9543V34.013L29.4034 18.6638Z" fill="#00A4C5"/>
  <path d="M29.4033 18.6638V20.7235L58.8067 35.9543V34.013L29.4033 18.6638Z" fill="#00B6DF"/>
  <path d="M56.9852 35.0108V45.7883L29.4034 31.3901L1.82166 45.7883V35.0108L0 34.0133V48.7987L29.4034 33.4499L58.8069 48.7987V35.9542V34.0133L56.9852 35.0108Z" fill="#0086A4"/>
  <path d="M29.4034 18.6638L0 34.013L1.82167 35.0107L29.4034 20.7235V18.6638Z" fill="#00D5FF"/>
  <path d="M29.4034 0L0 15.3492V17.2905V30.1352L29.4034 14.786L58.8068 30.1352V17.2905V15.3492L29.4034 0Z" fill="#049A03"/>
  <path d="M29.4033 0V2.05977L58.8067 17.2905V15.3492L29.4033 0Z" fill="#6AB36A"/>
  <path d="M56.9852 16.347V27.1245L29.4034 12.7263L1.82166 27.1245V16.347L0 15.3494V30.135L29.4034 14.7861L58.8069 30.135V17.2904V15.3494L56.9852 16.347Z" fill="#037803"/>
  <path d="M29.4034 0L0 15.3492L1.82167 16.3469L29.4034 2.05977V0Z" fill="#7ED37D"/>
  <path d="M73.1445 33.0467H79.5676C80.0203 33.0467 80.4164 32.9379 80.7654 32.7251C81.1096 32.5122 81.3785 32.2142 81.5718 31.8264C81.7651 31.4385 81.8642 30.9891 81.8642 30.4831C81.8642 29.9628 81.7699 29.5087 81.5812 29.1161C81.3879 28.7235 81.1238 28.4208 80.7795 28.2079C80.4306 27.9951 80.0297 27.891 79.5676 27.891H73.1445V24.23H79.4732C80.7229 24.23 81.8264 24.4901 82.7791 25.0057C83.7364 25.526 84.4721 26.2545 85.0003 27.1957C85.5237 28.137 85.7878 29.2344 85.7878 30.4831C85.7878 31.7176 85.5237 32.8102 85.0003 33.7515C84.4721 34.6928 83.7364 35.4212 82.7791 35.932C81.8264 36.4476 80.7229 36.703 79.4732 36.703H73.1445V33.0467ZM71.4185 16.5532H75.2006V36.703H71.4185V16.5532ZM72.786 16.5532H84.3212V20.2142H72.786V16.5532Z" fill="#009B00"/>
  <path d="M94.7814 16.5532H97.1818L104.864 36.703H100.789L95.9792 22.9434L91.1737 36.703H87.0991L94.7814 16.5532ZM90.787 29.8161H101.355V33.4724H90.787V29.8161Z" fill="#009B00"/>
  <path d="M118.351 16.5532H122.138V36.703H118.351V16.5532ZM107.354 16.5532H111.136V36.703H107.354V16.5532ZM109.108 24.8827H120.808V28.539H109.108V24.8827Z" fill="#009B00"/>
  <path d="M132.15 25.6443L137.291 16.5532H141.657L134.956 28.1275L132.15 25.6443ZM132.136 27.8343L135.579 26.3774L142.502 36.703H137.762L132.136 27.8343ZM126.557 16.5532H130.339V36.703H126.557V16.5532ZM128.198 24.8685H135.315V28.5249H128.198V24.8685Z" fill="#009B00"/>
  <path d="M146.713 25.228H153.136C153.589 25.228 153.985 25.124 154.334 24.9158C154.678 24.7077 154.947 24.4145 155.14 24.0361C155.333 23.6577 155.433 23.2225 155.433 22.7353C155.433 22.2339 155.338 21.7941 155.15 21.4109C154.956 21.0278 154.692 20.7345 154.348 20.5264C153.999 20.3183 153.598 20.2142 153.136 20.2142H146.713V16.5532H153.042C154.291 16.5532 155.395 16.8087 156.347 17.3242C157.305 17.835 158.04 18.5587 158.569 19.4906C159.092 20.4271 159.356 21.5055 159.356 22.7353C159.356 23.9651 159.092 25.0436 158.569 25.9706C158.04 26.8977 157.305 27.6167 156.347 28.1275C155.395 28.6336 154.291 28.8891 153.042 28.8891H146.713V25.228ZM144.987 16.5532H148.769V36.703H144.987V16.5532Z" fill="#009B00"/>
  <path d="M169.25 36.911C167.793 36.911 166.51 36.6035 165.402 35.9887C164.289 35.3737 163.431 34.5082 162.822 33.3824C162.214 32.2614 161.912 30.9607 161.912 29.4849V23.7758C161.912 22.2953 162.214 20.9945 162.822 19.8735C163.431 18.7525 164.289 17.8822 165.402 17.2673C166.51 16.6524 167.793 16.345 169.25 16.345C170.703 16.345 171.985 16.6524 173.094 17.2673C174.206 17.8822 175.065 18.7525 175.673 19.8735C176.281 20.9945 176.583 22.2953 176.583 23.7758V29.4849C176.583 30.9607 176.281 32.2614 175.673 33.3824C175.065 34.5082 174.206 35.3737 173.094 35.9887C171.985 36.6035 170.703 36.911 169.25 36.911ZM169.25 33.1128C169.929 33.1128 170.528 32.9662 171.042 32.6776C171.561 32.3844 171.957 31.9729 172.24 31.4384C172.518 30.8992 172.66 30.2843 172.66 29.5795V23.6765C172.66 22.9764 172.518 22.3568 172.24 21.8223C171.957 21.2831 171.561 20.8716 171.042 20.5783C170.528 20.2898 169.929 20.1432 169.25 20.1432C168.566 20.1432 167.967 20.2898 167.453 20.5783C166.935 20.8716 166.538 21.2831 166.255 21.8223C165.977 22.3568 165.836 22.9764 165.836 23.6765V29.5795C165.836 30.2843 165.977 30.8992 166.255 31.4384C166.538 31.9729 166.935 32.3844 167.453 32.6776C167.967 32.9662 168.566 33.1128 169.25 33.1128Z" fill="#009B00"/>
  <path d="M183.299 18.204H187.085V36.703H183.299V18.204ZM177.828 16.5532H192.556V20.2142H177.828V16.5532Z" fill="#009B00"/>
  <path d="M205.766 16.5532H209.552V36.703H205.766V16.5532ZM194.768 16.5532H198.55V36.703H194.768V16.5532ZM196.522 24.8827H208.223V28.539H196.522V24.8827Z" fill="#009B00"/>
  <path d="M215.697 33.0467H221.224C221.677 33.0467 222.073 32.9379 222.417 32.7251C222.762 32.5122 223.035 32.2142 223.228 31.8264C223.422 31.4385 223.516 30.9891 223.516 30.4831C223.516 29.9628 223.422 29.5087 223.233 29.1161C223.045 28.7235 222.776 28.4208 222.432 28.2079C222.087 27.9951 221.682 27.891 221.224 27.891H215.697V24.23H221.125C222.38 24.23 223.483 24.4901 224.436 25.0057C225.388 25.526 226.129 26.2545 226.652 27.1957C227.18 28.137 227.44 29.2344 227.44 30.4831C227.44 31.7176 227.18 32.8102 226.652 33.7515C226.129 34.6928 225.388 35.4212 224.436 35.932C223.483 36.4476 222.38 36.703 221.125 36.703H215.697V33.0467ZM213.971 16.5532H217.753V36.703H213.971V16.5532ZM233.467 36.703H229.543V16.5532H233.467V36.703Z" fill="#009B00"/>
  <path d="M249.383 36.6888V20.5737L249.713 20.9332L242.13 36.6888H237.612V16.5532H241.229V32.9048L240.899 32.5453L248.51 16.5532H253V36.6888H249.383ZM249.755 10.4705C249.755 11.951 249.354 13.0909 248.553 13.8997C247.751 14.7085 246.619 15.1153 245.153 15.1153H245.044C243.577 15.1153 242.446 14.7085 241.644 13.8997C240.842 13.0909 240.441 11.951 240.441 10.4705L243.554 10.4988C243.554 11.0995 243.681 11.5678 243.945 11.9037C244.209 12.2442 244.572 12.4098 245.044 12.4098H245.153C245.624 12.4098 245.992 12.2442 246.251 11.9037C246.515 11.5678 246.647 11.0995 246.647 10.4988L249.755 10.4705Z" fill="#009B00"/>
  <path d="M73.0737 61.9984H79.4874C80.3504 61.9984 81.02 61.7855 81.4963 61.3646C81.9727 60.9436 82.2085 60.3571 82.2085 59.6003V59.5577C82.2085 59.0516 82.1 58.6164 81.8878 58.2569C81.6803 57.8927 81.369 57.6184 80.9587 57.4292C80.5485 57.24 80.058 57.1454 79.4874 57.1454H73.0737V53.4891H79.4874C80.2702 53.4891 80.8738 53.2904 81.303 52.8931C81.7321 52.4958 81.9444 51.9377 81.9444 51.214C81.9444 50.5707 81.7321 50.0646 81.303 49.7051C80.8738 49.3456 80.2702 49.1659 79.4874 49.1659H73.0737V45.5049H79.61C80.9068 45.5049 82.0198 45.7224 82.9394 46.1481C83.859 46.5786 84.5617 47.2029 85.038 48.0212C85.519 48.8395 85.7595 49.8186 85.7595 50.968C85.7595 51.7532 85.6039 52.4485 85.2974 53.0492C84.9861 53.6546 84.5381 54.1513 83.9486 54.5392C83.3591 54.927 82.6517 55.1919 81.8217 55.3291C82.7036 55.4521 83.4629 55.7217 84.0948 56.1427C84.7267 56.5636 85.203 57.1075 85.5285 57.784C85.8585 58.4604 86.0189 59.2408 86.0189 60.1253V60.1678C86.0189 61.322 85.7784 62.3106 85.2974 63.1336C84.8116 63.9566 84.109 64.5809 83.1799 65.0114C82.2556 65.4418 81.1427 65.6547 79.8458 65.6547H73.0737V61.9984ZM71.4185 45.5049H75.2006V65.6547H71.4185V45.5049Z" fill="#00A400"/>
  <path d="M89.6836 45.5049H93.4657V65.6547H89.6836V45.5049ZM91.0512 61.9984H103.138V65.6547H91.0512V61.9984ZM91.0512 53.8202H101.62V57.4765H91.0512V53.8202ZM91.0512 45.5049H103.138V49.1659H91.0512V45.5049Z" fill="#00A400"/>
  <path d="M113.447 65.8627C111.919 65.8627 110.608 65.5694 109.523 64.9829C108.434 64.3964 107.609 63.5402 107.038 62.4192C106.463 61.2982 106.18 59.9407 106.18 58.3514V52.8221C106.18 51.2328 106.463 49.88 107.038 48.7542C107.609 47.6332 108.434 46.7771 109.523 46.1859C110.608 45.5946 111.919 45.2966 113.447 45.2966C114.706 45.2966 115.838 45.571 116.833 46.1149C117.828 46.6589 118.649 47.4535 119.299 48.4941C119.945 49.53 120.398 50.7834 120.643 52.2545H116.72C116.574 51.5875 116.347 51.0199 116.036 50.5517C115.729 50.0787 115.357 49.7192 114.918 49.4685C114.48 49.2178 113.989 49.0948 113.447 49.0948C112.735 49.0948 112.136 49.2415 111.636 49.53C111.141 49.8232 110.759 50.2489 110.495 50.8071C110.235 51.3652 110.103 52.0369 110.103 52.8221V58.3514C110.103 59.1366 110.235 59.8083 110.495 60.3617C110.759 60.9151 111.141 61.3361 111.636 61.6293C112.136 61.9178 112.735 62.0645 113.447 62.0645C113.999 62.0645 114.499 61.9415 114.937 61.7003C115.38 61.4543 115.753 61.0948 116.06 60.6266C116.361 60.1536 116.583 59.5812 116.72 58.9048H120.643C120.389 60.3759 119.931 61.6293 119.285 62.6699C118.634 63.7058 117.814 64.5004 116.823 65.0444C115.833 65.5883 114.706 65.8627 113.447 65.8627Z" fill="#00A400"/>
  <path d="M126.807 47.1556H130.594V65.6547H126.807V47.1556ZM121.336 45.5049H136.064V49.1659H121.336V45.5049Z" fill="#00A400"/>
  <path d="M149.273 45.5049H153.06V65.6547H149.273V45.5049ZM138.276 45.5049H142.058V65.6547H138.276V45.5049ZM140.03 53.8344H151.73V57.4907H140.03V53.8344Z" fill="#00A400"/>
  <path d="M169.25 65.6405V49.5254L169.58 49.8848L161.997 65.6405H157.479V45.5049H161.097V61.8565L160.766 61.497L168.378 45.5049H172.867V65.6405H169.25Z" fill="#00A400"/>
  <path d="M182.884 54.5959L188.024 45.5049H192.391L185.69 57.0792L182.884 54.5959ZM182.87 56.7859L186.313 55.3291L193.235 65.6547H188.496L182.87 56.7859ZM177.291 45.5049H181.073V65.6547H177.291V45.5049ZM178.932 53.8202H186.048V57.4765H178.932V53.8202Z" fill="#00A400"/>
</svg>